<svg id="Layer_1" data-name="Layer 1" xmlns="http://www.w3.org/2000/svg" viewBox="0 0 441.7887 114.8877">
  <g>
    <g id="type">
      <path id="type_CompoundPathItem_" data-name="type &lt;CompoundPathItem&gt;" d="M107.9968,47.1542a29.8657,29.8657,0,0,1,26.9107-16.04,30.7126,30.7126,0,0,1,12.653,2.7924,25.8957,25.8957,0,0,1,9.92,7.4252V9.7285h13.6634v87.92H157.4805V87.7869a25.34,25.34,0,0,1-9.2071,7.8413,28.578,28.578,0,0,1-13.4854,3.0891,29.2893,29.2893,0,0,1-15.6234-4.3361,30.5917,30.5917,0,0,1-11.1678-12.1189,37.27,37.27,0,0,1-4.0987-17.6434A36.2265,36.2265,0,0,1,107.9968,47.1542Zm46.6921,5.94a19.6115,19.6115,0,0,0-7.3065-7.6032,19.1278,19.1278,0,0,0-9.7427-2.6143,19.4613,19.4613,0,0,0-9.7428,2.5542,19.266,19.266,0,0,0-7.3064,7.4853,23.3663,23.3663,0,0,0-2.7924,11.7027A24.3782,24.3782,0,0,0,120.5905,76.5a19.6838,19.6838,0,0,0,7.3666,7.7828,18.8863,18.8863,0,0,0,9.6826,2.6729,19.12,19.12,0,0,0,9.7427-2.6135,19.4968,19.4968,0,0,0,7.3065-7.6634,24.06,24.06,0,0,0,2.7916-11.8222A23.7216,23.7216,0,0,0,154.6889,53.0942Z" style="fill: #fff"></path>
      <path id="type_CompoundPathItem_2" data-name="type &lt;CompoundPathItem&gt;" d="M180.2323,47.1542a29.8606,29.8606,0,0,1,26.792-16.04,28.5788,28.5788,0,0,1,13.4846,3.03,27.3807,27.3807,0,0,1,9.2078,7.5446V32.1836h13.6627V97.6483H229.7167V87.9056a26.9022,26.9022,0,0,1-9.3859,7.7226,30.3777,30.3777,0,0,1-28.99-1.247,30.742,30.742,0,0,1-11.1084-12.1189,37.27,37.27,0,0,1-4.0987-17.6434A36.2265,36.2265,0,0,1,180.2323,47.1542Zm46.6921,5.94a19.6059,19.6059,0,0,0-7.3065-7.6032,19.1258,19.1258,0,0,0-9.7428-2.6143,19.4612,19.4612,0,0,0-9.7427,2.5542,19.2669,19.2669,0,0,0-7.3065,7.4853,23.3661,23.3661,0,0,0-2.7915,11.7027A24.3779,24.3779,0,0,0,192.8259,76.5a19.6852,19.6852,0,0,0,7.3666,7.7828,18.8908,18.8908,0,0,0,9.6826,2.6729,19.1181,19.1181,0,0,0,9.7428-2.6135,19.4913,19.4913,0,0,0,7.3065-7.6634,24.0614,24.0614,0,0,0,2.7923-11.8222A23.7229,23.7229,0,0,0,226.9244,53.0942Z" style="fill: #fff"></path>
      <path id="type_CompoundPathItem_3" data-name="type &lt;CompoundPathItem&gt;" d="M275.8731,34.1444a29.2171,29.2171,0,0,1,13.3659-3.03,30.1726,30.1726,0,0,1,15.6836,4.1581,29.266,29.266,0,0,1,11.0491,11.8222,37.0316,37.0316,0,0,1,4.0394,17.524,37.74,37.74,0,0,1-4.0394,17.6434,30.19,30.19,0,0,1-11.1085,12.1189,31.1038,31.1038,0,0,1-29.1088,1.3657,25.9036,25.9036,0,0,1-9.3265-7.604v9.5054h-13.544V9.7285h13.544V41.9264A25.688,25.688,0,0,1,275.8731,34.1444Zm27.5643,18.7718a19.1646,19.1646,0,0,0-7.3666-7.4853,19.7954,19.7954,0,0,0-9.8013-2.5542,19.2208,19.2208,0,0,0-9.6834,2.6143,19.45,19.45,0,0,0-7.3659,7.6032,23.6972,23.6972,0,0,0-2.7923,11.762A24.0352,24.0352,0,0,0,269.22,76.6784,19.309,19.309,0,0,0,286.27,86.9553a19.1092,19.1092,0,0,0,9.8013-2.6729A19.7073,19.7073,0,0,0,303.4374,76.5a24.3968,24.3968,0,0,0,2.7915-11.8807A23.3839,23.3839,0,0,0,303.4374,52.9162Z" style="fill: #fff"></path>
      <path id="type_CompoundPathItem_4" data-name="type &lt;CompoundPathItem&gt;" d="M336.7628,94.5a30.2906,30.2906,0,0,1-11.7621-11.8815,35.8329,35.8329,0,0,1-4.2775-17.7622,35.144,35.144,0,0,1,4.3962-17.702,30.3662,30.3662,0,0,1,12-11.8815,36.7892,36.7892,0,0,1,33.98,0A30.3828,30.3828,0,0,1,383.098,47.1542a35.1615,35.1615,0,0,1,4.3962,17.702,34.4225,34.4225,0,0,1-4.5149,17.7028A31.264,31.264,0,0,1,370.6832,94.5a35.45,35.45,0,0,1-17.1687,4.2174A33.5242,33.5242,0,0,1,336.7628,94.5Zm26.5538-9.8021a19.7621,19.7621,0,0,0,7.4259-7.6633,24.3928,24.3928,0,0,0,2.8509-12.1783,25.2715,25.2715,0,0,0-2.7322-12.1774,18.7073,18.7073,0,0,0-7.2471-7.604,19.471,19.471,0,0,0-9.7428-2.5542,18.8169,18.8169,0,0,0-9.624,2.5542,18.5724,18.5724,0,0,0-7.0691,7.604,25.7273,25.7273,0,0,0-2.6729,12.1774A27.08,27.08,0,0,0,337.06,77.0938a17.8473,17.8473,0,0,0,6.8919,7.6634,18.4731,18.4731,0,0,0,9.5631,2.5541A19.4359,19.4359,0,0,0,363.3166,84.6978Z" style="fill: #fff"></path>
      <path id="type_CompoundPathItem_5" data-name="type &lt;CompoundPathItem&gt;" d="M420.64,64.5l21.1487,33.1481H426.462L412.3239,75.4306,399.0173,97.6483h-14.139L406.027,65.4505,384.8783,32.1836h15.3266l14.1382,22.2178,13.3074-22.2178h14.1382Z" style="fill: #fff"></path>
    </g>
    <g id="logoMark">
      <path id="logoMark_CompoundPathItem_" data-name="logoMark &lt;CompoundPathItem&gt;" d="M0,27.2533V80.1568l13.6266,9.3056V34.45L51.9748,8.2512,39.89,0Z" style="fill: #fff"></path>
      <path id="logoMark_CompoundPathItem_2" data-name="logoMark &lt;CompoundPathItem&gt;" d="M25.1394,40.603V97.3292l13.6361,9.3059V47.7921L74.3221,23.5176l-12.078-8.2525Zm13.6361,66.0321,12.0781,8.2526L87.9475,89.5494V32.8235L74.3221,23.5176V82.35Z" style="fill: #fff"></path>
      <polygon id="logoMark_PathItem_" data-name="logoMark &lt;PathItem&gt;" points="50.37 59.068 50.37 79.524 62.728 71.081 62.728 50.629 50.37 59.068" style="fill: #fff"></polygon>
    </g>
  </g>
</svg>